/* XPM */
static const char * ddAddForeignKey_xpm[] = {
"8 8 2 1",
" 	c None",
".	c #4A5CE3",
".       ",
".....   ",
".   .   ",
"    .   ",
"    .   ",
"    .  .",
"    ....",
"       ."};
