/* XPM */
static const char * ddcancel_xpm[] = {
"16 16 53 1",
" 	c None",
".	c #CF6467",
"+	c #C50000",
"@	c #CB6265",
"#	c #DD6969",
"$	c #802147",
"%	c #F67777",
"&	c #A83435",
"*	c #F15757",
"=	c #F67676",
"-	c #F67272",
";	c #F56E6E",
">	c #C25E64",
",	c #F15656",
"'	c #EF4F4F",
")	c #EE4849",
"!	c #F56D6D",
"~	c #F46868",
"{	c #F36262",
"]	c #F05555",
"^	c #EF4E4F",
"/	c #EE4848",
"(	c #C76064",
"_	c #F36161",
":	c #F15B5B",
"<	c #F05454",
"[	c #EF4D4E",
"}	c #EE4747",
"|	c #F05354",
"1	c #EF4D4D",
"2	c #EE4646",
"3	c #F05353",
"4	c #EF4C4C",
"5	c #EE4545",
"6	c #EC3E3F",
"7	c #EB3838",
"8	c #F05252",
"9	c #EF4B4B",
"0	c #ED4445",
"a	c #EB3737",
"b	c #EA3131",
"c	c #E92B2B",
"d	c #F05151",
"e	c #EE4A4A",
"f	c #ED4344",
"g	c #B95B62",
"h	c #E92A2B",
"i	c #E82525",
"j	c #E72020",
"k	c #ED4243",
"l	c #7E7F80",
"m	c #BD4A4B",
"n	c #E71F20",
"                ",
"                ",
"                ",
"    .+@   #+#   ",
"   $+%+$ &+*+#  ",
"   +=-;+>+,')+  ",
"   $+!~{+]^/+#  ",
"    (+_:<[}+#   ",
"     $+|12+#    ",
"    >+34567+#   ",
"   $+890+abc+#  ",
"   +def+g+hij+  ",
"   &+k+&lm+n+#  ",
"    #+#   #+#   ",
"                ",
"                "};
