/* XPM */
static const char * ddDown_xpm[] = {
"9 6 19 1",
" 	c None",
".	c #8BB161",
"+	c #5A9B13",
"@	c #CEE0A7",
"#	c #B0CD6C",
"$	c #AECB67",
"%	c #ADCB62",
"&	c #ABC95E",
"*	c #AAC85A",
"=	c #C5DA8D",
"-	c #BAD383",
";	c #9EC24F",
">	c #96BC3D",
",	c #9BBF43",
"'	c #B4CF70",
")	c #BAD381",
"!	c #A5C55A",
"~	c #B6D178",
"{	c #CCDFA3",
".+++++++.",
"+@#$%&*=+",
".+-;>,'+.",
" .+)!~+. ",
"  .+{+.  ",
"   .+.   "};
