/* XPM */
static const char * ddforeignkey_xpm[] = {
"8 10 26 1",
" 	c None",
".	c #B4B4B4",
"+	c #D5D5D5",
"@	c #BCBCBC",
"#	c #B3B3B3",
"$	c #DFDFDF",
"%	c #E0E0E0",
"&	c #E1E1E1",
"*	c #8F8F8F",
"=	c #D2D2D2",
"-	c #D9D9D9",
";	c #797979",
">	c #DCDCDC",
",	c #B1B1B1",
"'	c #CCCCCC",
")	c #CECECE",
"!	c #DADADA",
"~	c #848484",
"{	c #B0B0B0",
"]	c #D0D0D0",
"^	c #D1D1D1",
"/	c #858585",
"(	c #D8D8D8",
"_	c #D4D4D4",
":	c #D3D3D3",
"<	c #E3E3E3",
"  .++.  ",
"@#$$%&.@",
"*=-;;>+*",
"@,+')!#@",
" ~{]^,/ ",
"  ;-(;  ",
"  ;_:;  ",
"  ;(_;  ",
"  {;<;  ",
"   {;{  "};
