/* XPM */
static const char * ddMinimizeTable_xpm[] = {
"8 8 2 1",
" 	c None",
".	c #BA020F",
"        ",
"        ",
"        ",
"        ",
"        ",
"        ",
" ...... ",
" ...... "};
