/* XPM */
static const char * ddprimaryforeignkey_xpm[] = {
"8 10 37 1",
" 	c None",
".	c #B4B4B4",
"+	c #D5D5D5",
"@	c #C7A92C",
"#	c #EEE7B9",
"$	c #C7A92D",
"%	c #BCBCBC",
"&	c #B3B3B3",
"*	c #E0E0E0",
"=	c #E0CF8B",
"-	c #DDCC7A",
";	c #F5F1C8",
">	c #DECC7F",
",	c #8F8F8F",
"'	c #D2D2D2",
")	c #797979",
"!	c #CBB03E",
"~	c #EDE4A8",
"{	c #C1A018",
"]	c #EEE7BA",
"^	c #B1B1B1",
"/	c #CECECE",
"(	c #EDE4A2",
"_	c #F3EDB1",
":	c #EEE7B7",
"<	c #848484",
"[	c #D1D1D1",
"}	c #DDCA72",
"|	c #F0E790",
"1	c #DDCC7B",
"2	c #D8D8D8",
"3	c #F3ECA0",
"4	c #D3D3D3",
"5	c #D4D4D4",
"6	c #B0B0B0",
"7	c #E3E3E3",
"8	c #DBC777",
" .+.@#$ ",
"%&*=-;>=",
",')!~{]!",
"%^/!(_:!",
" <[^}|1=",
" )2){3{ ",
" )4){3{ ",
" )5){3{ ",
" 67)8{{ ",
"  )6 88 "};
