/* XPM */
static const char * ddprimarykey_xpm[] = {
"8 10 34 1",
" 	c None",
".	c #C7A92C",
"+	c #DECC7D",
"@	c #EEE7B9",
"#	c #EEE7BA",
"$	c #DECC7F",
"%	c #C7A92D",
"&	c #E0CF8B",
"*	c #DDCC7A",
"=	c #F5F1C5",
"-	c #F5F1C8",
";	c #F5F2CD",
">	c #F6F3D0",
",	c #CBB03E",
"'	c #EDE4A8",
")	c #F3EEB3",
"!	c #C1A018",
"~	c #F4F0C6",
"{	c #EDE4A2",
"]	c #F1EBA0",
"^	c #F3EDB1",
"/	c #F3EFB8",
"(	c #F2EEB8",
"_	c #EEE7B7",
":	c #DDCA72",
"<	c #F2EB9E",
"[	c #F0E790",
"}	c #F0E99A",
"|	c #F4EEB6",
"1	c #DDCC7B",
"2	c #F3ECA0",
"3	c #F3ECA3",
"4	c #DBC777",
"5	c #F7F0AD",
" .+@#$% ",
"&*=-;>$&",
",')!!~#,",
",{]^/(_,",
" :<[}|1&",
"  !23!  ",
"  !23!  ",
"  !23!  ",
"  4!5!  ",
"   4!4  "};
