/* XPM */
static const char * ddRemoveColumn_xpm[] = {
"8 8 2 1",
" 	c None",
".	c #4A5CE3",
"        ",
"        ",
"        ",
"........",
"........",
"        ",
"        ",
"        "};
