/* XPM */
static const char * ddunique_xpm[] = {
"8 8 12 1",
" 	c None",
".	c #2C66BD",
"+	c #83A5D8",
"@	c #7CBADB",
"#	c #A7D4E5",
"$	c #7DB9DC",
"%	c #7DB6DD",
"&	c #3B71C2",
"*	c #7EB4DF",
"=	c #648FCF",
"-	c #80AEE3",
";	c #76A6E3",
"  .+    ",
" .@.    ",
".#$.    ",
"+.%.    ",
" &*.    ",
" =-.    ",
" .;.    ",
"+...+   "};
