/* XPM */
static const char * ddunique_xpm[] = {
"8 8 20 1",
" 	c None",
".	c #83A5D8",
"+	c #2C66BD",
"@	c #4D83C8",
"#	c #72B5D6",
"$	c #7CBADB",
"%	c #A7D4E5",
"&	c #8EC6DE",
"*	c #6AB2D5",
"=	c #7DB9DC",
"-	c #69A4D4",
";	c #7DB6DD",
">	c #3B71C2",
",	c #85B9DE",
"'	c #7EB4DF",
")	c #648FCF",
"!	c #76A5DA",
"~	c #80AEE3",
"{	c #6E9EDA",
"]	c #76A6E3",
"   .+.  ",
" +@#$+  ",
"+%&*=+  ",
".++-;+  ",
"  >,'+  ",
"  )!~+  ",
" ++{]++ ",
".++++++."};
